<?xml version="1.0" encoding="UTF-8"?>
<svg version="1.1" xmlns="http://www.w3.org/2000/svg" width="512" height="512">
<path d="M0 0 C1.73544176 0.00254233 3.47089318 0.00110651 5.20632935 -0.00398254 C9.89239801 -0.00655337 14.57637183 0.04616598 19.26195574 0.10918307 C24.16788495 0.16564072 29.07386807 0.17074693 33.98007202 0.18141174 C43.25918308 0.20932794 52.537334 0.28310472 61.81602323 0.37355715 C72.38423723 0.47433271 82.95249832 0.52368269 93.52107358 0.56881607 C115.25074926 0.66276005 136.97956207 0.82095063 158.70849609 1.02172852 C156.41879727 4.04044076 154.7447797 5.99870866 151.50878906 8.05175781 C149.31001967 9.83823092 148.76212684 10.77611352 148.14898682 13.58413696 C147.91613095 16.9160001 147.87800843 20.20130998 147.90380859 23.54125977 C147.89010223 24.7549675 147.87639587 25.96867523 147.86227417 27.21916199 C147.82491891 31.09122599 147.82869334 34.96200962 147.83349609 38.83422852 C147.81537346 41.46120174 147.79457216 44.08815795 147.77099609 46.71508789 C147.71909279 53.15076045 147.70094333 59.58586593 147.70849609 66.02172852 C148.31435547 66.29758789 148.92021484 66.57344727 149.54443359 66.85766602 C154.03383386 69.27254197 156.21795431 72.5269011 157.76147461 77.23046875 C159.29539339 83.62110968 159.01675315 90.17253384 159.00927734 96.70532227 C159.01317242 98.12964501 159.01750874 99.55396661 159.02226257 100.97828674 C159.02969165 103.95284809 159.02945752 106.92729066 159.02416992 109.90185547 C159.01837652 113.69216038 159.03531889 117.48197641 159.0585146 121.27220058 C159.07332647 124.21066576 159.07411363 127.14901516 159.07100487 130.08751106 C159.07151424 131.48399893 159.07667891 132.88049395 159.08681679 134.27694511 C159.14475705 143.37186586 159.10494587 151.93971696 153.33349609 159.39672852 C148.59573408 164.13449053 144.15357559 166.10468569 137.52099609 166.33422852 C132.29023046 166.23959295 128.052886 164.96417646 123.70849609 162.02172852 C118.28584763 156.37171534 116.59394477 151.83352916 116.515625 144.01513672 C116.50335876 142.95110878 116.50335876 142.95110878 116.49084473 141.86558533 C116.46603354 139.51790195 116.44948333 137.170279 116.43505859 134.82250977 C116.42973492 134.01883657 116.42441124 133.21516338 116.41892624 132.38713646 C116.39220974 128.1309848 116.37283243 123.87486228 116.35839844 119.61865234 C116.34507483 116.10438925 116.31725009 112.59070896 116.27636719 109.07666016 C116.22692101 104.82615586 116.20226263 100.576179 116.19517136 96.3253994 C116.18847866 94.71033152 116.17330831 93.09527448 116.14928055 91.48037148 C115.92030386 75.15595749 115.92030386 75.15595749 121.70849609 69.02172852 C122.21700104 68.46209915 122.72550598 67.90246979 123.24942017 67.32588196 C124.70849609 66.02172852 124.70849609 66.02172852 126.70849609 66.02172852 C126.70849609 54.14172852 126.70849609 42.26172852 126.70849609 30.02172852 C120.38043361 35.19923419 114.28320653 40.26209672 108.27099609 45.74438477 C104.59759462 49.00900833 100.78533072 52.09194835 96.95849609 55.17407227 C94.6872986 56.97778012 94.6872986 56.97778012 92.70849609 59.02172852 C92.83678046 60.98373563 92.83678046 60.98373563 93.45849609 63.14672852 C93.63896484 63.87118164 93.81943359 64.59563477 94.00537109 65.34204102 C94.56490913 67.47450263 95.15994695 69.59764185 95.76708984 71.71704102 C99.63012979 87.28207002 96.66966523 104.05211213 88.84912109 117.78735352 C82.99325777 126.63526379 75.53181504 133.32562951 67.23193359 139.85375977 C62.32031004 144.07349827 57.25886391 149.36615817 56.47021484 156.03735352 C56.44572266 156.77469727 56.42123047 157.51204102 56.39599609 158.27172852 C56.35861328 158.99875977 56.32123047 159.72579102 56.28271484 160.47485352 C57.58437144 168.26090947 63.07593879 172.43844908 68.95849609 177.02172852 C70.42304796 178.1871268 71.88659293 179.35379158 73.34912109 180.52172852 C74.07099609 181.09503906 74.79287109 181.66834961 75.53662109 182.2590332 C78.40953668 184.59069356 81.18324513 187.02488732 83.95361328 189.47680664 C85.34078031 190.69800767 86.75452961 191.88900947 88.17724609 193.06860352 C101.35898784 204.12098698 108.20828331 218.20712724 109.92724609 235.18188477 C110.65023806 251.2985807 104.2010452 266.63177152 93.85302734 278.72094727 C75.83679433 298.04983843 49.99593242 307.82856559 23.85498047 309.22802734 C19.86732189 309.32423831 15.88439144 309.35589232 11.89599609 309.33422852 C11.1960553 309.3324057 10.4961145 309.33058289 9.77496338 309.32870483 C-13.45538633 309.22701202 -36.57239124 304.94176579 -54.00244141 288.36938477 C-64.13959472 277.972748 -68.68071696 266.81901409 -68.50244141 252.27172852 C-67.49913376 236.81335886 -59.6971503 224.13031747 -48.29150391 214.02172852 C-27.2900071 197.15498018 3.33419741 191.1226047 29.70849609 192.02172852 C29.23798828 191.33208008 28.76748047 190.64243164 28.28271484 189.93188477 C21.9922896 180.43764045 18.41736287 172.59226859 19.70849609 161.02172852 C20.48991817 157.91849485 21.48290976 154.976267 22.70849609 152.02172852 C22.04849609 152.35172852 21.38849609 152.68172852 20.70849609 153.02172852 C2.49145783 154.31687925 -15.40963669 150.96120864 -29.60400391 138.70922852 C-39.54803676 129.17953037 -47.09932026 117.85209041 -49.29150391 104.02172852 C-49.29150391 100.72172852 -49.29150391 97.42172852 -49.29150391 94.02172852 C-72.39150391 94.02172852 -95.49150391 94.02172852 -119.29150391 94.02172852 C-114.8234188 88.43662213 -114.8234188 88.43662213 -111.79150391 85.89672852 C-108.22100348 82.84581584 -104.74271397 79.7062149 -101.29150391 76.52172852 C-97.38210283 72.9211556 -93.43282841 69.37754309 -89.41650391 65.89672852 C-86.67326972 63.47622777 -83.98265822 60.99972209 -81.29150391 58.52172852 C-77.38168795 54.92160095 -73.43283923 51.37755246 -69.41650391 47.89672852 C-66.67326972 45.47622777 -63.98265822 42.99972209 -61.29150391 40.52172852 C-57.38168795 36.92160095 -53.43283923 33.37755246 -49.41650391 29.89672852 C-46.67326897 27.4762271 -43.98269148 24.99968674 -41.29150391 22.52172852 C-37.3728024 18.91428596 -33.45705485 15.31022594 -29.36849022 11.89469051 C-27.2262034 10.04022941 -27.2262034 10.04022941 -25.33349037 7.75930882 C-17.76003918 -0.43695777 -10.38707763 -0.21399221 0 0 Z M-7.29150391 46.02172852 C-15.82995485 56.99438697 -17.40398156 69.53656461 -16.29150391 83.02172852 C-13.7404611 102.59949892 -6.23797285 123.20558016 9.84912109 135.68188477 C18.3295807 141.23302531 26.72246342 141.99231486 36.70849609 141.02172852 C45.61216676 138.63718223 52.24651825 134.34920082 57.95849609 127.20922852 C65.96701647 112.62228069 64.52196463 95.67433484 60.18505859 80.08666992 C55.56215768 64.69826357 48.51942947 48.9074208 34.51318359 39.98657227 C19.96656803 32.42733592 4.45638649 33.85427061 -7.29150391 46.02172852 Z M23.20068359 203.28393555 C8.01848954 204.90603923 -6.62538795 208.03063526 -19.29150391 217.02172852 C-19.93603516 217.47161133 -20.58056641 217.92149414 -21.24462891 218.38500977 C-28.28823949 223.82083967 -32.27890021 231.46586531 -34.29150391 240.02172852 C-35.41643417 252.00354385 -33.88779437 261.55076058 -26.66650391 271.27172852 C-22.46465928 276.18166177 -17.81556988 279.71238024 -12.29150391 283.02172852 C-11.17195313 283.71395508 -11.17195313 283.71395508 -10.02978516 284.42016602 C8.04445347 294.54664946 32.32527366 295.05957461 52.02099609 290.20532227 C62.98528045 286.86289374 72.08737394 281.56348423 78.70849609 272.02172852 C83.1611283 263.34877535 85.36426912 253.83405183 83.02490234 244.20922852 C80.12285495 235.53921141 75.35662403 229.216575 68.70849609 223.02172852 C68.04591797 222.38879883 67.38333984 221.75586914 66.70068359 221.10375977 C64.09284613 218.67236015 61.41235545 216.34591209 58.70849609 214.02172852 C57.89977051 213.28720459 57.89977051 213.28720459 57.07470703 212.5378418 C49.41135856 205.65215546 43.27760704 201.72948481 32.76000977 202.26098633 C29.56480544 202.530784 26.38947559 202.95052797 23.20068359 203.28393555 Z " fill="#FFFFFF" transform="translate(231.29150390625,110.978271484375)"/>
<path d="M0 0 C2.67814128 2.46739961 5.29485318 4.99510874 7.90722656 7.53173828 C8.48069824 8.07942871 9.05416992 8.62711914 9.64501953 9.19140625 C17.69597852 16.8908909 24.99754603 24.85891546 31.63232422 33.8125 C32.86993636 35.4814515 34.12776476 37.13351381 35.38769531 38.78564453 C58.08005465 69.03311337 72.0138823 105.36185414 77.90722656 142.53173828 C78.10203613 143.72694092 78.10203613 143.72694092 78.30078125 144.94628906 C87.49808608 204.18775254 70.90461913 267.60732277 35.71582031 315.76220703 C28.97067953 324.85563939 21.70698549 333.33450816 13.90722656 341.53173828 C13.09825928 342.38372803 13.09825928 342.38372803 12.27294922 343.25292969 C4.56823705 351.30937387 -3.41434167 358.61790141 -12.37353516 365.25683594 C-14.04248666 366.49444808 -15.69454897 367.75227648 -17.34667969 369.01220703 C-66.43078389 405.83625125 -130.43930817 419.96888976 -190.78027344 411.57080078 C-240.00019297 403.90115409 -284.10501452 381.77450559 -320.09277344 347.53173828 C-320.94476318 346.722771 -320.94476318 346.722771 -321.81396484 345.89746094 C-329.87040903 338.19274877 -337.17893657 330.21017005 -343.81787109 321.25097656 C-345.05548324 319.58202506 -346.31331163 317.92996275 -347.57324219 316.27783203 C-370.26560152 286.03036319 -384.19942918 249.70162242 -390.09277344 212.53173828 C-390.22264648 211.73493652 -390.35251953 210.93813477 -390.48632812 210.1171875 C-399.68363296 150.87572402 -383.090166 87.45615379 -347.90136719 39.30126953 C-341.15622641 30.20783717 -333.89253236 21.72896841 -326.09277344 13.53173828 C-325.55346191 12.96374512 -325.01415039 12.39575195 -324.45849609 11.81054688 C-316.75378393 3.75410269 -308.77120521 -3.55442485 -299.81201172 -10.19335938 C-298.14306022 -11.43097152 -296.49099791 -12.68879991 -294.83886719 -13.94873047 C-264.2541345 -36.89411304 -227.69397829 -50.72752259 -190.09277344 -56.46826172 C-189.26970703 -56.59813477 -188.44664062 -56.72800781 -187.59863281 -56.86181641 C-121.04208593 -66.93844373 -49.86197391 -44.87577652 0 0 Z M-312.09277344 29.53173828 C-351.36104195 69.16304163 -371.17519869 125.94442485 -371.08886719 181.02392578 C-370.41714955 241.09467408 -343.5807103 294.40552298 -301.53417969 336.06689453 C-259.95618335 374.70007494 -203.28992946 393.91224879 -147.00585938 392.44018555 C-88.58999909 389.99060882 -34.9329787 363.19744467 4.59472656 320.65673828 C42.04517003 277.51495162 61.77743895 221.40923134 58.58276367 164.26953125 C54.45679696 106.88771935 28.2364164 52.61269623 -15.36621094 14.76220703 C-88.30081227 -44.90205853 -193.55933038 -56.20626759 -312.09277344 29.53173828 Z " fill="#FFFFFF" transform="translate(412.0927734375,78.46826171875)"/>
</svg>
